<svg xmlns="http://www.w3.org/2000/svg" viewBox="0 0 61 75.69"><defs><style>.cls-1{fill:#fff;}.cls-2{fill:#04aa92;}</style></defs><g id="レイヤー_2" data-name="レイヤー 2"><g id="レイヤー_2-2" data-name="レイヤー 2"><path class="cls-1" d="M22.19,58.3l-.55-.18a29,29,0,1,1,17.72,0l-.55.18L30.5,72.69Z"/><path class="cls-2" d="M30.5,3a27.5,27.5,0,0,1,8.4,53.69l-1.1.36-.58,1L30.5,69.69,23.78,58.05l-.58-1-1.1-.36A27.5,27.5,0,0,1,30.5,3m0-3a30.51,30.51,0,0,0-9.32,59.55L30.5,75.69l9.32-16.14A30.51,30.51,0,0,0,30.5,0Z"/><path class="cls-2" d="M43.63,25.89V24.78c-5.8-.49-6.14-3.21-6.14-3.21H36.34v-3h6.95V17.46c-5.8-.49-11.45-4.83-11.45-4.83h-.53V6.34a.81.81,0,0,0-1.62,0v6.29h-.53S23.51,17,17.71,17.46v1.12h7v3H23.51s-.34,2.72-6.14,3.21v1.11h7.29v3H23.51s-.34,2.71-6.14,3.2V33.2h7.29v3H23.51s-.34,2.71-6.14,3.21v1.11h7.29v3H23.51s-.34,2.72-6.14,3.21v1.11h7.29v3.69H36.34V47.83h7.29V46.72c-5.8-.49-6.14-3.21-6.14-3.21H36.34v-3h7.29V39.41c-5.8-.5-6.14-3.21-6.14-3.21H36.34v-3h7.29V32.09c-5.8-.49-6.14-3.2-6.14-3.2H36.34v-3ZM28.76,49.31H27.33V47.87h1.43Zm0-7.14H27.33V40.73h1.43Zm0-7.14H27.33V33.59h1.43Zm0-7.15H27.33V26.45h1.43Zm0-7.14H27.33V19.31h1.43Zm4.91,28.57H32.24V47.87h1.43Zm0-7.14H32.24V40.73h1.43Zm0-7.14H32.24V33.59h1.43Zm0-7.15H32.24V26.45h1.43Zm0-7.14H32.24V19.31h1.43Z"/></g></g></svg>