<svg xmlns="http://www.w3.org/2000/svg" viewBox="0 0 63 78.94"><defs><style>.cls-1{fill:#fff;stroke:#ffbc27;stroke-miterlimit:10;stroke-width:3px;}.cls-2{fill:#ffbc27;}</style></defs><g id="レイヤー_2" data-name="レイヤー 2"><g id="レイヤー_2-2" data-name="レイヤー 2"><path class="cls-1" d="M61.5,31.5A30,30,0,1,0,22.34,60.07L31.5,75.94l9.16-15.87A30,30,0,0,0,61.5,31.5Z"/><polygon class="cls-2" points="18.26 46.17 20.98 49.03 30.84 39.66 27.98 36.95 18.26 46.17"/><path class="cls-2" d="M51.36,17.47c-2.77-2.92-7.94-2.51-11.23.62a9.46,9.46,0,0,0-2.89,6.72,6.24,6.24,0,0,1-1.66,4.92l-2,1.86,2.86,2.72,1.82-1.72a6.27,6.27,0,0,1,5-1.41,9.5,9.5,0,0,0,6.87-2.53C53.45,25.52,54.13,20.38,51.36,17.47Z"/><path class="cls-2" d="M28.42,25.94c.19-2.07.1-3.52-2.91-6.35l-5.38-5.11a1.64,1.64,0,1,0-2.28,2.35l5.65,5.36a.9.9,0,0,1,0,1.27l-.17.18a.9.9,0,0,1-1.27,0l-5.66-5.38a1.54,1.54,0,0,0-2.38.08,1.53,1.53,0,0,0,0,2.37l5.67,5.38a.9.9,0,0,1,0,1.27l-.17.18a.9.9,0,0,1-1.27,0l-5.64-5.36a1.64,1.64,0,1,0-2.23,2.39l5.38,5.12c3,2.85,4.44,2.87,6.49,2.58,1.65-.24,2.86-.65,4.72,1.12L43.49,49l2.71-2.86L29.8,30.59C27.93,28.82,28.27,27.6,28.42,25.94Z"/></g></g></svg>