<svg xmlns="http://www.w3.org/2000/svg" viewBox="0 0 60 76.11"><defs><style>.cls-1{fill:#fff;}.cls-2{fill:#d81203;}</style></defs><g id="レイヤー_2" data-name="レイヤー 2"><g id="レイヤー_2-2" data-name="レイヤー 2"><path class="cls-1" d="M20.66,56.94l-.51-.19a28.5,28.5,0,1,1,19.7,0l-.51.19L30,73.11Z"/><path class="cls-2" d="M30,3a27,27,0,0,1,9.33,52.35l-1,.37-.54.94L30,70.11,22.23,56.66l-.54-.94-1-.37A27,27,0,0,1,30,3m0-3A30,30,0,0,0,19.64,58.16L30,76.11l10.36-18A30,30,0,0,0,30,0Z"/><path class="cls-2" d="M42.64,22.73l0-.39,0-.33H45V19.07h2l1.92-4.3H11.11L13,19.07h2V22h2.43l-.08.72h0L16.76,28H11.85v4.43h4.4l-.06.52h0l0,.26-1.1,9.72h0l-.45,4h5.55l.33-4,.79-9.72,0-.26.05-.52h17.3l.05.52,0,.26.79,9.72h0l.33,4h5.55l-.45-4h0l-1.1-9.72,0-.26h0l0-.12,0-.4h4.4V28H43.24ZM31.92,22H37.8l.06.72L38.29,28H31.92V22Zm-9.78.72L22.2,22h5.87v6H21.71Z"/></g></g></svg>