<svg xmlns="http://www.w3.org/2000/svg" viewBox="0 0 63 78.94"><defs><style>.cls-1{fill:#fff;stroke:#3149f4;stroke-miterlimit:10;stroke-width:3px;}.cls-2{fill:#3149f4;}</style></defs><g id="レイヤー_2" data-name="レイヤー 2"><g id="レイヤー_2-2" data-name="レイヤー 2"><path class="cls-1" d="M61.5,31.5A30,30,0,1,0,22.34,60.07L31.5,75.94l9.16-15.87A30,30,0,0,0,61.5,31.5Z"/><path class="cls-2" d="M37.16,10.1H23.75c0,2.61-1.4,5.4-3.49,6.09v2.27H40.65V16.19C38.56,15.5,37.16,12.71,37.16,10.1Z"/><path class="cls-2" d="M49.18,39.54H13.82c0,2.62-1.4,5.4-3.49,6.1v2.27H52.67V45.64C50.58,44.94,49.18,42.16,49.18,39.54Z"/><path class="cls-2" d="M42.6,24.21H30.81l5.69,8.36h9.58V30.31C44,29.61,42.6,26.82,42.6,24.21Z"/><path class="cls-2" d="M30.39,24.21H18.6c0,2.61-1.4,5.4-3.49,6.1v2.26H24.7Z"/><polygon class="cls-2" points="36.3 34.15 30.6 25.78 24.9 34.15 23.17 32.97 30.6 22.06 38.03 32.97 36.3 34.15"/><path class="cls-2" d="M24.42,9.48a1.64,1.64,0,0,1,0-3.27A1.73,1.73,0,0,1,25,6.3l-.19.7c-.92-.14-.9.49-.9.84a.54.54,0,0,0,.53.54,6,6,0,0,0,.74-.09l0,1.19C25,9.6,24.68,9.48,24.42,9.48Z"/><polygon class="cls-2" points="24.24 9.25 22.76 9.48 22.07 8.47 24.05 8.88 24.24 9.25"/><path class="cls-2" d="M36.59,9.48a1.64,1.64,0,1,0,0-3.27A1.67,1.67,0,0,0,36,6.3l.19.7c.92-.14.9.49.9.84a.54.54,0,0,1-.54.54,5.82,5.82,0,0,1-.73-.09l0,1.19C36,9.6,36.34,9.48,36.59,9.48Z"/><polygon class="cls-2" points="36.78 9.25 38.26 9.48 38.95 8.47 36.97 8.88 36.78 9.25"/><rect class="cls-2" x="24.44" y="20.2" width="2.09" height="2.44"/><rect class="cls-2" x="29.5" y="29.44" width="2.09" height="2.44"/><rect class="cls-2" x="34.2" y="20.2" width="2.09" height="2.44"/><rect class="cls-2" x="18.17" y="35.36" width="2.09" height="2.44"/><rect class="cls-2" x="29.5" y="35.36" width="2.09" height="2.44"/><rect class="cls-2" x="40.47" y="35.36" width="2.09" height="2.44"/></g></g></svg>