<svg xmlns="http://www.w3.org/2000/svg" viewBox="0 0 61 77.38"><defs><style>.cls-1{fill:#fff;}.cls-2{fill:#db5e00;}</style></defs><g id="レイヤー_2" data-name="レイヤー 2"><g id="レイヤー_2-2" data-name="レイヤー 2"><path class="cls-1" d="M21,57.91l-.51-.19a29,29,0,1,1,20,0l-.51.19L30.5,74.38Z"/><path class="cls-2" d="M30.5,3A27.51,27.51,0,0,1,40,56.32l-1,.37-.54.94L30.5,71.38,22.56,57.63,22,56.69l-1-.37A27.51,27.51,0,0,1,30.5,3m0-3A30.51,30.51,0,0,0,20,59.13L30.5,77.38,41,59.13A30.51,30.51,0,0,0,30.5,0Z"/><path class="cls-2" d="M44.56,21.14H39.24l5.2-3.9-5.89-4.41-5.89,4.41,5.21,3.9H23.13l5.21-3.9-5.89-4.41-5.89,4.41,5.2,3.9H16.44a6,6,0,0,0-6,6V41.69a1.07,1.07,0,0,0,1.07,1.07h3.22a3,3,0,0,0,0,.43,2.72,2.72,0,1,0,5.44,0,3,3,0,0,0,0-.43h1.65a3,3,0,0,0,0,.43,2.72,2.72,0,0,0,5.44,0,3,3,0,0,0,0-.43h6.78a3,3,0,0,0,0,.43,2.72,2.72,0,0,0,5.44,0,3,3,0,0,0,0-.43H40.9a3,3,0,0,0,0,.43,2.72,2.72,0,0,0,5.44,0,3,3,0,0,0,0-.43h3.22a1.07,1.07,0,0,0,1.07-1.07V27.13A6,6,0,0,0,44.56,21.14ZM22.17,38.43H17.29V28.67h4.88Zm.28-18.81-3.18-2.38,3.18-2.38,3.18,2.38ZM33,33.55H27.32V28.67H33Zm2.36-16.31,3.18-2.38,3.18,2.38-3.18,2.38Zm8.34,16.31H38V28.67h5.69Z"/></g></g></svg>